<svg xmlns="http://www.w3.org/2000/svg" xmlns:svg="http://www.w3.org/2000/svg" id="svg112" width="393" height="265" version="1.2"><metadata id="metadata116"/><title id="title2">Qt Svg Document</title><desc id="desc4">Generated with Qt</desc><g id="g110" fill="none" fill-rule="evenodd" stroke="#000" stroke-linecap="square" stroke-linejoin="bevel" stroke-width="1"><g id="g10" fill="#fff" fill-opacity="1" stroke="none" font-family="Helvetica" font-size="12" font-style="normal" font-weight="400"><path id="path8" fill-rule="evenodd" d="M 0,0 H 393 V 265 H 0 V 0" vector-effect="non-scaling-stroke"/></g><g id="g24" fill="none" stroke="silver" stroke-linecap="square" stroke-linejoin="bevel" stroke-opacity="1" stroke-width="1" font-family="Helvetica" font-size="12" font-style="normal" font-weight="400"><polyline id="polyline12" fill="none" points="89 27 329 27" vector-effect="non-scaling-stroke"/><polyline id="polyline14" fill="none" points="89 95 329 95" vector-effect="non-scaling-stroke"/><polyline id="polyline16" fill="none" points="89 162 329 162" vector-effect="non-scaling-stroke"/><polyline id="polyline18" fill="none" points="269 15 269 175" vector-effect="non-scaling-stroke"/><polyline id="polyline20" fill="none" points="209 15 209 175" vector-effect="non-scaling-stroke"/><polyline id="polyline22" fill="none" points="149 15 149 175" vector-effect="non-scaling-stroke"/></g><g id="g50" fill="none" stroke="#000" stroke-linecap="square" stroke-linejoin="bevel" stroke-opacity="1" stroke-width="1" font-family="Helvetica" font-size="12" font-style="normal" font-weight="400"><polyline id="polyline26" fill="none" points="89 170 89 180" vector-effect="non-scaling-stroke"/><polyline id="polyline28" fill="none" points="149 170 149 180" vector-effect="non-scaling-stroke"/><polyline id="polyline30" fill="none" points="209 170 209 180" vector-effect="non-scaling-stroke"/><polyline id="polyline32" fill="none" points="269 170 269 180" vector-effect="non-scaling-stroke"/><polyline id="polyline34" fill="none" points="329 170 329 180" vector-effect="non-scaling-stroke"/><polyline id="polyline36" fill="none" points="84 162 94 162" vector-effect="non-scaling-stroke"/><polyline id="polyline38" fill="none" points="84 95 94 95" vector-effect="non-scaling-stroke"/><polyline id="polyline40" fill="none" points="84 27 94 27" vector-effect="non-scaling-stroke"/><polyline id="polyline42" fill="none" points="89 15 329 15" vector-effect="non-scaling-stroke"/><polyline id="polyline44" fill="none" points="329 15 329 175" vector-effect="non-scaling-stroke"/><polyline id="polyline46" fill="none" points="89 175 329 175" vector-effect="non-scaling-stroke"/><polyline id="polyline48" fill="none" points="89 15 89 175" vector-effect="non-scaling-stroke"/></g><g id="g54" fill="none" stroke="#00f" stroke-linecap="square" stroke-linejoin="bevel" stroke-opacity="1" stroke-width="1" font-family="Helvetica" font-size="12" font-style="normal" font-weight="400"><path id="path52" fill-rule="evenodd" d="m 90.2,28.3333 1.2,0.0021 1.2,0.0034 1.2,0.0049 1.2,0.0062 1.2,0.0077 1.2,0.0091 1.2,0.0106 1.2,0.0121 1.2,0.0137 1.2,0.0153 1.2,0.017 1.2,0.0187 1.2,0.0204 1.2,0.0224 1.2,0.0243 1.2,0.0263 1.2,0.0285 1.2,0.0307 1.2,0.0331 1.2,0.0356 1.2,0.0382 1.2,0.0409 1.2,0.044 1.2,0.0471 1.2,0.0504 1.2,0.054 1.2,0.0579 1.2,0.0618 1.2,0.0663 1.2,0.0709 1.2,0.076 1.2,0.0813 1.2,0.0872 1.2,0.0935 1.2,0.1002 1.2,0.1076 1.2,0.1156 1.2,0.1243 1.2,0.1336 1.2,0.1439 1.2,0.1551 1.2,0.1672 1.2,0.1807 1.2,0.1953 1.2,0.2114 1.2,0.2291 1.2,0.2486 1.2,0.2702 1.2,0.294 1.2,0.3205 1.2,0.3499 1.2,0.3825 1.2,0.4191 1.2,0.4599 1.2,0.5057 1.2,0.557 1.2,0.6149 1.2,0.6801 1.2,0.754 1.2,0.8377 1.2,0.9327 1.2,1.0411 1.2,1.1647 1.2,1.3059 1.2,1.4679 1.2,1.6535 1.2,1.8666 1.2,2.1115 1.2,2.3928 1.2,2.7153 1.2,3.0847 1.2,3.5056 1.2,3.9827 1.2,4.5191 1.2,5.115 1.2,5.7666 1.2,6.4639 1.2,7.1885 1.2,7.9109 1.2,8.587 1.2,9.153 1.2,9.506 1.2,9.421 1.2,8.144 1.2,3.049 1.2,-4.958 1.2,-8.288 1.2,-8.832 1.2,-8.592 1.2,-8.076 1.2,-7.451 1.2,-6.7911 1.2,-6.1399 1.2,-5.5197 1.2,-4.944 1.2,-4.4187 1.2,-3.9454 1.2,-3.5226 1.2,-3.1472 1.2,-2.8152 1.2,-2.522 1.2,-2.2638 1.2,-2.0362 1.2,-1.8355 1.2,-1.6585 1.2,-1.502 1.2,-1.3635 1.2,-1.2408 1.2,-1.1316 1.2,-1.0344 1.2,-0.9478 1.2,-0.8702 1.2,-0.8008 1.2,-0.7383 1.2,-0.682 1.2,-0.6314 1.2,-0.5855 1.2,-0.5439 1.2,-0.5061 1.2,-0.4719 1.2,-0.4405 1.2,-0.4119 1.2,-0.3858 1.2,-0.3618 1.2,-0.3398 1.2,-0.3196 1.2,-0.3008 1.2,-0.2837 1.2,-0.2677 1.2,-0.2531 1.2,-0.2393 1.2,-0.2267 1.2,-0.215 1.2,-0.2039 1.2,-0.1938 1.2,-0.1842 1.2,-0.1754 1.2,-0.167 1.2,-0.1592 1.2,-0.1519 1.2,-0.1451 1.2,-0.1386 1.2,-0.1326 1.2,-0.1269 1.2,-0.1216 1.2,-0.1164 1.2,-0.1117 1.2,-0.1072 1.2,-0.103 1.2,-0.0989 1.2,-0.0951 1.2,-0.0914 1.2,-0.0881 1.2,-0.0848 1.2,-0.0816 1.2,-0.0788 1.2,-0.076 1.2,-0.0733 1.2,-0.0707 1.2,-0.0684 1.2,-0.0661 1.2,-0.0638 1.2,-0.0618 1.2,-0.0598 1.2,-0.0578 1.2,-0.0561 1.2,-0.0542 1.2,-0.0526 1.2,-0.051 1.2,-0.0495 1.2,-0.048 1.2,-0.0466 1.2,-0.0452 1.2,-0.0439 1.2,-0.0427 1.2,-0.0414 1.2,-0.0404 1.2,-0.0392 1.2,-0.0381 1.2,-0.0371 1.2,-0.0361 1.2,-0.0352 1.2,-0.0342 1.2,-0.0333 1.2,-0.0325 1.2,-0.0317 1.2,-0.0309 1.2,-0.0301 1.2,-0.0294 1.2,-0.0286 1.2,-0.0279 1.2,-0.0273 1.2,-0.0267 1.2,-0.026 1.2,-0.0254 1.2,-0.0248 1.2,-0.0242 1.2,-0.0237 1.2,-0.0232" vector-effect="non-scaling-stroke"/></g><g id="g58" fill="none" stroke="red" stroke-linecap="square" stroke-linejoin="bevel" stroke-opacity="1" stroke-width="1" font-family="Helvetica" font-size="12" font-style="normal" font-weight="400"><path id="path56" fill-rule="evenodd" d="m 90.2,161.667 1.2,-0.406 1.2,-0.413 1.2,-0.416 1.2,-0.418 1.2,-0.42 1.2,-0.422 1.2,-0.426 1.2,-0.428 1.2,-0.431 1.2,-0.435 1.2,-0.439 1.2,-0.444 1.2,-0.449 1.2,-0.454 1.2,-0.46 1.2,-0.466 1.2,-0.473 1.2,-0.48 1.2,-0.488 1.2,-0.497 1.2,-0.505 1.2,-0.515 1.2,-0.525 1.2,-0.536 1.2,-0.547 1.2,-0.559 1.2,-0.573 1.2,-0.586 1.2,-0.602 1.2,-0.616 1.2,-0.633 1.2,-0.651 1.2,-0.67 1.2,-0.689 1.2,-0.711 1.2,-0.733 1.2,-0.756 1.2,-0.782 1.2,-0.809 1.2,-0.838 1.2,-0.869 1.2,-0.9 1.2,-0.936 1.2,-0.973 1.2,-1.013 1.2,-1.054 1.2,-1.1 1.2,-1.149 1.2,-1.2 1.2,-1.257 1.2,-1.315 1.2,-1.38 1.2,-1.449 1.2,-1.523 1.2,-1.602 1.2,-1.688 1.2,-1.781 1.2,-1.879 1.2,-1.987 1.2,-2.102 1.2,-2.225 1.2,-2.359 1.2,-2.502 1.2,-2.655 1.2,-2.818 1.2,-2.9916 1.2,-3.1747 1.2,-3.3665 1.2,-3.5652 1.2,-3.7677 1.2,-3.9697 1.2,-4.1653 1.2,-4.346 1.2,-4.5005 1.2,-4.6151 1.2,-4.6726 1.2,-4.6535 1.2,-4.5374 1.2,-4.3045 1.2,-3.94 1.2,-3.4375 1.2,-2.8024 1.2,-2.0556 1.2,-1.2313 1.2,-0.3747 1.2,0.4655 1.2,1.2442 1.2,1.926 1.2,2.4894 1.2,2.9263 1.2,3.2408 1.2,3.4442 1.2,3.5533 1.2,3.5856 1.2,3.5584 1.2,3.4869 1.2,3.3842 1.2,3.2606 1.2,3.1241 1.2,2.9812 1.2,2.8361 1.2,2.6924 1.2,2.5521 1.2,2.4169 1.2,2.2876 1.2,2.1648 1.2,2.0487 1.2,1.9394 1.2,1.8365 1.2,1.7401 1.2,1.6498 1.2,1.5651 1.2,1.4861 1.2,1.4115 1.2,1.343 1.2,1.278 1.2,1.217 1.2,1.16 1.2,1.107 1.2,1.057 1.2,1.01 1.2,0.966 1.2,0.924 1.2,0.885 1.2,0.849 1.2,0.814 1.2,0.781 1.2,0.75 1.2,0.721 1.2,0.694 1.2,0.667 1.2,0.643 1.2,0.619 1.2,0.597 1.2,0.576 1.2,0.556 1.2,0.536 1.2,0.519 1.2,0.501 1.2,0.485 1.2,0.469 1.2,0.455 1.2,0.439 1.2,0.427 1.2,0.413 1.2,0.4 1.2,0.389 1.2,0.377 1.2,0.366 1.2,0.356 1.2,0.346 1.2,0.336 1.2,0.326 1.2,0.318 1.2,0.309 1.2,0.301 1.2,0.293 1.2,0.285 1.2,0.277 1.2,0.271 1.2,0.264 1.2,0.257 1.2,0.251 1.2,0.244 1.2,0.239 1.2,0.233 1.2,0.228 1.2,0.222 1.2,0.216 1.2,0.212 1.2,0.207 1.2,0.202 1.2,0.198 1.2,0.193 1.2,0.189 1.2,0.185 1.2,0.181 1.2,0.177 1.2,0.173 1.2,0.169 1.2,0.166 1.2,0.163 1.2,0.159 1.2,0.156 1.2,0.152 1.2,0.15 1.2,0.146 1.2,0.144 1.2,0.14 1.2,0.138 1.2,0.136 1.2,0.132 1.2,0.13 1.2,0.128 1.2,0.125 1.2,0.123 1.2,0.12 1.2,0.119 1.2,0.116" vector-effect="non-scaling-stroke"/></g><g id="g62" fill="none" stroke="#000" stroke-linecap="square" stroke-linejoin="bevel" stroke-opacity="1" stroke-width="1" font-family="Helvetica" font-size="12" font-style="normal" font-weight="400" transform="translate(85,193)"><text id="text60" x="0" y="0" fill="#000" fill-opacity="1" stroke="none" font-family="Helvetica" font-size="12" font-style="normal" font-weight="400" xml:space="preserve">0</text></g><g id="g66" fill="none" stroke="#000" stroke-linecap="square" stroke-linejoin="bevel" stroke-opacity="1" stroke-width="1" font-family="Helvetica" font-size="12" font-style="normal" font-weight="400" transform="translate(131,193)"><text id="text64" x="0" y="0" fill="#000" fill-opacity="1" stroke="none" font-family="Helvetica" font-size="12" font-style="normal" font-weight="400" xml:space="preserve">5e10</text></g><g id="g70" fill="none" stroke="#000" stroke-linecap="square" stroke-linejoin="bevel" stroke-opacity="1" stroke-width="1" font-family="Helvetica" font-size="12" font-style="normal" font-weight="400" transform="translate(191,193)"><text id="text68" x="0" y="0" fill="#000" fill-opacity="1" stroke="none" font-family="Helvetica" font-size="12" font-style="normal" font-weight="400" xml:space="preserve">1e11</text></g><g id="g74" fill="none" stroke="#000" stroke-linecap="square" stroke-linejoin="bevel" stroke-opacity="1" stroke-width="1" font-family="Helvetica" font-size="12" font-style="normal" font-weight="400" transform="translate(245,193)"><text id="text72" x="0" y="0" fill="#000" fill-opacity="1" stroke="none" font-family="Helvetica" font-size="12" font-style="normal" font-weight="400" xml:space="preserve">1.5e11</text></g><g id="g78" fill="none" stroke="#000" stroke-linecap="square" stroke-linejoin="bevel" stroke-opacity="1" stroke-width="1" font-family="Helvetica" font-size="12" font-style="normal" font-weight="400" transform="translate(311,193)"><text id="text76" x="0" y="0" fill="#000" fill-opacity="1" stroke="none" font-family="Helvetica" font-size="12" font-style="normal" font-weight="400" xml:space="preserve">2e11</text></g><g id="g82" fill="none" stroke="#000" stroke-linecap="square" stroke-linejoin="bevel" stroke-opacity="1" stroke-width="1" font-family="Helvetica" font-size="12" font-style="normal" font-weight="400" transform="translate(73,168)"><text id="text80" x="0" y="0" fill="#000" fill-opacity="1" stroke="none" font-family="Helvetica" font-size="12" font-style="normal" font-weight="400" xml:space="preserve">0</text></g><g id="g86" fill="none" stroke="#000" stroke-linecap="square" stroke-linejoin="bevel" stroke-opacity="1" stroke-width="1" font-family="Helvetica" font-size="12" font-style="normal" font-weight="400" transform="translate(60,101)"><text id="text84" x="0" y="0" fill="#000" fill-opacity="1" stroke="none" font-family="Helvetica" font-size="12" font-style="normal" font-weight="400" xml:space="preserve">0.5</text></g><g id="g90" fill="none" stroke="#000" stroke-linecap="square" stroke-linejoin="bevel" stroke-opacity="1" stroke-width="1" font-family="Helvetica" font-size="12" font-style="normal" font-weight="400" transform="translate(73,33)"><text id="text88" x="0" y="0" fill="#000" fill-opacity="1" stroke="none" font-family="Helvetica" font-size="12" font-style="normal" font-weight="400" xml:space="preserve">1</text></g><g id="g94" fill="none" stroke="#00f" stroke-linecap="square" stroke-linejoin="bevel" stroke-opacity="1" stroke-width="1" font-family="Helvetica" font-size="12" font-style="normal" font-weight="400" transform="translate(174,212)"><text id="text92" x="0" y="0" fill="#00f" fill-opacity="1" stroke="none" font-family="Helvetica" font-size="12" font-style="normal" font-weight="400" xml:space="preserve">frequency</text></g><g id="g98" fill="none" stroke="red" stroke-linecap="square" stroke-linejoin="bevel" stroke-opacity="1" stroke-width="1" font-family="Helvetica" font-size="12" font-style="normal" font-weight="400" transform="translate(174,231)"><text id="text96" x="0" y="0" fill="red" fill-opacity="1" stroke="none" font-family="Helvetica" font-size="12" font-style="normal" font-weight="400" xml:space="preserve">frequency</text></g><g id="g102" fill="none" stroke="#00f" stroke-linecap="square" stroke-linejoin="bevel" stroke-opacity="1" stroke-width="1" font-family="Helvetica" font-size="12" font-style="normal" font-weight="400" transform="rotate(-90,100.5,47.5)"><text id="text100" x="0" y="0" fill="#00f" fill-opacity="1" stroke="none" font-family="Helvetica" font-size="12" font-style="normal" font-weight="400" xml:space="preserve">ngspice/ac.s11</text></g><g id="g106" fill="none" stroke="red" stroke-linecap="square" stroke-linejoin="bevel" stroke-opacity="1" stroke-width="1" font-family="Helvetica" font-size="12" font-style="normal" font-weight="400" transform="rotate(-90,91,57)"><text id="text104" x="0" y="0" fill="red" fill-opacity="1" stroke="none" font-family="Helvetica" font-size="12" font-style="normal" font-weight="400" xml:space="preserve">ngspice/ac.s21</text></g></g></svg>