<svg xmlns="http://www.w3.org/2000/svg" xmlns:svg="http://www.w3.org/2000/svg" xmlns:xlink="http://www.w3.org/1999/xlink" style="overflow:visible" id="Layer_1" width="204" height="192.343" enable-background="new 0 0 532.627 498.523" overflow="visible" version="1.1" viewBox="0 0 204 192.343" xml:space="preserve"><metadata id="metadata4043"/><path style="fill:#fff;fill-opacity:1;stroke:none" id="path5968" d="m 529.83733,243.07503 a 179.27058,179.27058 0 1 1 -358.54117,0 179.27058,179.27058 0 1 1 358.54117,0 z" transform="matrix(0.5189029,0,0,0.5189029,-84.147671,-29.931533)"/><g id="g5932" transform="matrix(0.37328791,0,0,0.37328791,3.1767732,3.1767769)"><g id="g4035"><path id="path4037" d="M 348.369,282.469 C 330.971,258.672 304.385,248.75 266.385,240.75 l -35.334,-8.332 -26.656,-11.432 c -14.01,-9.902 -25.947,-36.26 -22.559,-59.502 5.264,-36.006 38.896,-61.104 75.127,-56.045 18.094,2.559 33.438,12.139 43.555,25.625 l 40.117,52.705 c 22.93,29.531 48.711,38.32 76.758,24.375 l 14.141,-6.016 c 1.133,-0.527 2.461,-0.576 3.75,-0.107 1.055,0.41 1.914,1.162 2.422,2.051 l 2.813,4.238 c 0.781,1.279 1.953,2.314 3.477,2.891 2.578,0.977 5.352,0.391 7.305,-1.289 l 32.578,-30.723 c 5.703,-4.883 4.023,-9.365 4.023,-9.365 l -7.852,-17.881 c 0,0 -2.148,-4.287 -9.57,-3.301 l -43.672,4.014 c -2.539,0.361 -4.805,2.051 -5.781,4.629 -0.586,1.504 -0.625,3.076 -0.195,4.502 l 1.563,5.029 c 0.313,1.045 0.313,2.217 -0.117,3.291 -0.508,1.328 -1.523,2.266 -2.734,2.764 l -12.344,5.225 c -12.93,7.568 -27.617,2.734 -37.422,-9.258 l -11.211,-14.893 -31.914,-42.354 c -15.156,-20.098 -38.008,-34.434 -65,-38.203 -54.043,-7.568 -104.199,29.854 -112.051,83.584 -3.965,27.08 4.152,52.703 18.965,73.281 10.762,14.953 30.486,23.496 41.154,26.164 l 28,8 26.814,6.145 c 3.688,0.875 14.063,3.438 20.203,5.656 5.676,2.055 18.75,6.875 29.375,15.57 l 0,0 c 12.695,12.906 19.414,31.344 16.563,50.68 -4.805,32.969 -35.586,55.938 -68.75,51.289 -16.611,-2.305 -30.635,-11.109 -39.922,-23.438 l -38.32,-50.859 c -7.813,-10.367 -19.629,-17.773 -33.594,-19.766 -13.945,-1.953 -27.441,1.914 -37.9,9.75 L 31.575,369.6 C 11.455,333.914 0,292.898 0,249.266 0,111.621 113.926,0 254.443,0 359.072,0 448.877,61.855 487.978,150.254 l 12.891,-5.996 8.711,-23.809 9.141,3.203 -7.852,21.289 21.758,7.5 -3.281,8.916 -24.297,-8.486 -13.398,6.162 c 11.094,27.998 17.266,58.398 17.266,90.232 0,137.656 -113.945,249.258 -254.473,249.258 -84.414,0 -159.229,-40.289 -205.508,-102.281 l 82.578,-61.898 c 3.779,-2.578 8.467,-3.75 13.33,-3.086 5.176,0.742 9.58,3.461 12.471,7.305 l 40.537,54.477 c 14.277,17.516 35.02,29.922 59.307,33.336 51.094,7.148 98.516,-28.242 105.938,-79.063 3.436,-23.649 -2.345,-46.485 -14.728,-64.844" clip-rule="evenodd" style="fill:#204a87;fill-opacity:1;fill-rule:evenodd"/></g><path id="path3973" d="M 506.77053,249.13764 0,249.266" style="fill:none;stroke:#fff;stroke-width:6.30493879;stroke-linecap:butt;stroke-linejoin:miter;stroke-miterlimit:4;stroke-opacity:1;stroke-dasharray:none;display:inline"/><path id="path3068-5-8" d="m 155.3263,97.199997 c 0,33.317293 -27.009,60.326303 -60.3263,60.326303 -33.317296,0 -60.326302,-27.00901 -60.326302,-60.326303 0,-33.317296 27.009006,-60.326302 60.326302,-60.326302 33.3173,0 60.3263,27.009006 60.3263,60.326302 z" transform="matrix(3.1140444,0,0,3.1140444,19.873647,-55.852713)" style="fill:#fff;fill-opacity:0;fill-rule:evenodd;stroke:#fff;stroke-width:2.02467847;stroke-linecap:butt;stroke-linejoin:miter;stroke-miterlimit:4;stroke-opacity:1;stroke-dasharray:none;display:inline"/><path id="path3068-5" d="m 136.85712,97.199997 c 0,23.117043 -18.74007,41.857113 -41.85712,41.857113 -23.117047,0 -41.857117,-18.74007 -41.857117,-41.857113 0,-23.117047 18.74007,-41.857117 41.857117,-41.857117 23.11705,0 41.85712,18.74007 41.85712,41.857117 z" transform="matrix(3.1140444,0,0,3.1140444,77.38752,-53.352111)" style="fill:#fff;fill-opacity:0;fill-rule:evenodd;stroke:#fff;stroke-width:2.02467847;stroke-linecap:butt;stroke-linejoin:miter;stroke-miterlimit:4;stroke-opacity:1;stroke-dasharray:none;display:inline"/><path id="path3068-9" d="M 175,97.199997 C 175,141.38278 139.18278,177.2 95.000002,177.2" transform="matrix(0,3.1140444,-3.1140444,0,806.25165,-295.83422)" style="fill:#fff;fill-opacity:0;fill-rule:evenodd;stroke:#fff;stroke-width:2.02467847;stroke-linecap:butt;stroke-linejoin:miter;stroke-miterlimit:4;stroke-opacity:1;stroke-dasharray:none;display:inline"/><path id="path3068-9-5" d="M 175,97.199997 C 175,141.38278 139.18278,177.2 95.000002,177.2" transform="matrix(0,-3.1140444,-3.1140444,0,806.25165,794.08132)" style="fill:#fff;fill-opacity:0;fill-rule:evenodd;stroke:#fff;stroke-width:2.02467847;stroke-linecap:butt;stroke-linejoin:miter;stroke-miterlimit:4;stroke-opacity:1;stroke-dasharray:none;display:inline"/><path id="path3068-9-3" d="m 277.48604,97.199997 c 0,51.334353 -21.62163,100.294613 -59.56237,134.873733" transform="matrix(0,3.1140444,-3.1140444,0,806.25176,-614.77085)" style="fill:#fff;fill-opacity:0;fill-rule:evenodd;stroke:#fff;stroke-width:2.02467847;stroke-linecap:butt;stroke-linejoin:miter;stroke-miterlimit:4;stroke-opacity:1;stroke-dasharray:none;display:inline"/><path id="path3068-9-3-6" d="m 277.48604,97.199997 c 0,51.334353 -21.62163,100.294613 -59.56237,134.873733" transform="matrix(0,-3.1140444,-3.1140444,0,806.25176,1113.4368)" style="fill:#fff;fill-opacity:0;fill-rule:evenodd;stroke:#fff;stroke-width:2.02467847;stroke-linecap:butt;stroke-linejoin:miter;stroke-miterlimit:4;stroke-opacity:1;stroke-dasharray:none;display:inline"/></g></svg>