<svg xmlns="http://www.w3.org/2000/svg" xmlns:svg="http://www.w3.org/2000/svg" id="svg1280" width="633.746" height="170.556" version="1.1" viewBox="0 0 167.679 45.126"><metadata id="metadata1277"/><g id="layer1" transform="translate(-25.800512,-58.007169)"><g id="g14559" transform="translate(280.50972,-81.119367)"><circle id="circle6933" cx="-141.143" cy="148.791" r="1.158" style="opacity:1;fill:#000;fill-opacity:1;fill-rule:nonzero;stroke:none;stroke-width:.5;stroke-linecap:round;stroke-linejoin:round;stroke-miterlimit:4;stroke-dasharray:none;stroke-dashoffset:0;stroke-opacity:1"/><circle style="opacity:1;fill:#000;fill-opacity:1;fill-rule:nonzero;stroke:none;stroke-width:.5;stroke-linecap:round;stroke-linejoin:round;stroke-miterlimit:4;stroke-dasharray:none;stroke-dashoffset:0;stroke-opacity:1" id="circle6935" cx="-88.188" cy="148.791" r="1.158"/><path style="opacity:1;fill:none;fill-opacity:1;fill-rule:nonzero;stroke:#000;stroke-width:.5;stroke-linecap:round;stroke-linejoin:miter;stroke-miterlimit:4;stroke-dasharray:none;stroke-dashoffset:0;stroke-opacity:1" id="path6937" d="m -135.05702,148.74628 -6.63903,0.0226"/><circle style="opacity:1;fill:#000;fill-opacity:1;fill-rule:nonzero;stroke:none;stroke-width:.5;stroke-linecap:round;stroke-linejoin:round;stroke-miterlimit:4;stroke-dasharray:none;stroke-dashoffset:0;stroke-opacity:1" id="circle6961" cx="-141.143" cy="153.918" r="1.158"/><path id="path6963" d="m -135.05702,153.87374 -6.63903,0.0226" style="opacity:1;fill:none;fill-opacity:1;fill-rule:nonzero;stroke:#000;stroke-width:.5;stroke-linecap:round;stroke-linejoin:miter;stroke-miterlimit:4;stroke-dasharray:none;stroke-dashoffset:0;stroke-opacity:1"/><circle id="circle6965" cx="-141.143" cy="159.211" r="1.158" style="opacity:1;fill:#000;fill-opacity:1;fill-rule:nonzero;stroke:none;stroke-width:.5;stroke-linecap:round;stroke-linejoin:round;stroke-miterlimit:4;stroke-dasharray:none;stroke-dashoffset:0;stroke-opacity:1"/><path style="opacity:1;fill:none;fill-opacity:1;fill-rule:nonzero;stroke:#000;stroke-width:.5;stroke-linecap:round;stroke-linejoin:miter;stroke-miterlimit:4;stroke-dasharray:none;stroke-dashoffset:0;stroke-opacity:1" id="path6967" d="m -135.05702,159.1666 -6.63903,0.0226"/><circle style="opacity:1;fill:#000;fill-opacity:1;fill-rule:nonzero;stroke:none;stroke-width:.5;stroke-linecap:round;stroke-linejoin:round;stroke-miterlimit:4;stroke-dasharray:none;stroke-dashoffset:0;stroke-opacity:1" id="circle6969" cx="88.188" cy="-159.211" r="1.158" transform="scale(-1)"/><path id="path6971" d="m -94.273536,159.25601 6.639025,-0.0226" style="opacity:1;fill:none;fill-opacity:1;fill-rule:nonzero;stroke:#000;stroke-width:.5;stroke-linecap:round;stroke-linejoin:miter;stroke-miterlimit:4;stroke-dasharray:none;stroke-dashoffset:0;stroke-opacity:1"/><circle id="circle6973" cx="88.188" cy="-154.084" r="1.158" transform="scale(-1)" style="opacity:1;fill:#000;fill-opacity:1;fill-rule:nonzero;stroke:none;stroke-width:.5;stroke-linecap:round;stroke-linejoin:round;stroke-miterlimit:4;stroke-dasharray:none;stroke-dashoffset:0;stroke-opacity:1"/><path style="opacity:1;fill:none;fill-opacity:1;fill-rule:nonzero;stroke:#000;stroke-width:.5;stroke-linecap:round;stroke-linejoin:miter;stroke-miterlimit:4;stroke-dasharray:none;stroke-dashoffset:0;stroke-opacity:1" id="path6975" d="m -94.273536,154.12856 6.639025,-0.0226"/><circle style="opacity:1;fill:#000;fill-opacity:1;fill-rule:nonzero;stroke:none;stroke-width:.5;stroke-linecap:round;stroke-linejoin:round;stroke-miterlimit:4;stroke-dasharray:none;stroke-dashoffset:0;stroke-opacity:1" id="circle6977" cx="88.188" cy="-148.791" r="1.158" transform="scale(-1)"/><path id="path6979" d="m -94.273536,148.8357 6.639025,-0.0226" style="opacity:1;fill:none;fill-opacity:1;fill-rule:nonzero;stroke:#000;stroke-width:.5;stroke-linecap:round;stroke-linejoin:miter;stroke-miterlimit:4;stroke-dasharray:none;stroke-dashoffset:0;stroke-opacity:1"/><rect style="opacity:1;fill:#fff;fill-opacity:1;stroke:#000;stroke-width:1;stroke-linecap:round;stroke-linejoin:round;stroke-miterlimit:4;stroke-dasharray:none;stroke-dashoffset:0;stroke-opacity:1;paint-order:normal" id="rect6925" width="41.358" height="38.712" x="-135.057" y="143.212"/><text id="text6957" x="-113.933" y="159.332" xml:space="preserve" style="font-style:normal;font-variant:normal;font-weight:400;font-stretch:normal;font-size:7.20081px;line-height:125%;font-family:Arial;-inkscape-font-specification:'Arial, Normal';text-align:start;letter-spacing:0;word-spacing:0;writing-mode:lr-tb;text-anchor:start;fill:#000;fill-opacity:1;stroke:none;stroke-width:.18002px;stroke-linecap:butt;stroke-linejoin:miter;stroke-opacity:1"><tspan style="text-align:center;text-anchor:middle;stroke-width:.18002px" id="tspan6953" x="-113.933" y="159.332">N port</tspan><tspan style="text-align:center;text-anchor:middle;stroke-width:.18002px" id="tspan6955" x="-113.933" y="168.333">network</tspan></text><circle style="opacity:1;fill:#000;fill-opacity:1;fill-rule:nonzero;stroke:none;stroke-width:.5;stroke-linecap:round;stroke-linejoin:round;stroke-miterlimit:4;stroke-dasharray:none;stroke-dashoffset:0;stroke-opacity:1" id="circle6981" cx="-141.143" cy="170.293" r="1.158"/><circle id="circle6983" cx="-88.188" cy="170.293" r="1.158" style="opacity:1;fill:#000;fill-opacity:1;fill-rule:nonzero;stroke:none;stroke-width:.5;stroke-linecap:round;stroke-linejoin:round;stroke-miterlimit:4;stroke-dasharray:none;stroke-dashoffset:0;stroke-opacity:1"/><path id="path6985" d="m -135.05702,170.24852 -6.63903,0.0226" style="opacity:1;fill:none;fill-opacity:1;fill-rule:nonzero;stroke:#000;stroke-width:.5;stroke-linecap:round;stroke-linejoin:miter;stroke-miterlimit:4;stroke-dasharray:none;stroke-dashoffset:0;stroke-opacity:1"/><circle id="circle6987" cx="-141.143" cy="175.421" r="1.158" style="opacity:1;fill:#000;fill-opacity:1;fill-rule:nonzero;stroke:none;stroke-width:.5;stroke-linecap:round;stroke-linejoin:round;stroke-miterlimit:4;stroke-dasharray:none;stroke-dashoffset:0;stroke-opacity:1"/><path style="opacity:1;fill:none;fill-opacity:1;fill-rule:nonzero;stroke:#000;stroke-width:.5;stroke-linecap:round;stroke-linejoin:miter;stroke-miterlimit:4;stroke-dasharray:none;stroke-dashoffset:0;stroke-opacity:1" id="path6989" d="m -135.05702,175.37598 -6.63903,0.0226"/><circle style="opacity:1;fill:#000;fill-opacity:1;fill-rule:nonzero;stroke:none;stroke-width:.5;stroke-linecap:round;stroke-linejoin:round;stroke-miterlimit:4;stroke-dasharray:none;stroke-dashoffset:0;stroke-opacity:1" id="circle6991" cx="-141.143" cy="180.714" r="1.158"/><path id="path6993" d="m -135.05702,180.66884 -6.63903,0.0226" style="opacity:1;fill:none;fill-opacity:1;fill-rule:nonzero;stroke:#000;stroke-width:.5;stroke-linecap:round;stroke-linejoin:miter;stroke-miterlimit:4;stroke-dasharray:none;stroke-dashoffset:0;stroke-opacity:1"/><circle id="circle6995" cx="88.188" cy="-180.714" r="1.158" transform="scale(-1)" style="opacity:1;fill:#000;fill-opacity:1;fill-rule:nonzero;stroke:none;stroke-width:.5;stroke-linecap:round;stroke-linejoin:round;stroke-miterlimit:4;stroke-dasharray:none;stroke-dashoffset:0;stroke-opacity:1"/><path style="opacity:1;fill:none;fill-opacity:1;fill-rule:nonzero;stroke:#000;stroke-width:.5;stroke-linecap:round;stroke-linejoin:miter;stroke-miterlimit:4;stroke-dasharray:none;stroke-dashoffset:0;stroke-opacity:1" id="path6997" d="m -94.273536,180.75826 6.639025,-0.0226"/><circle style="opacity:1;fill:#000;fill-opacity:1;fill-rule:nonzero;stroke:none;stroke-width:.5;stroke-linecap:round;stroke-linejoin:round;stroke-miterlimit:4;stroke-dasharray:none;stroke-dashoffset:0;stroke-opacity:1" id="circle6999" cx="88.188" cy="-175.586" r="1.158" transform="scale(-1)"/><path id="path7001" d="m -94.273536,175.6308 6.639025,-0.0226" style="opacity:1;fill:none;fill-opacity:1;fill-rule:nonzero;stroke:#000;stroke-width:.5;stroke-linecap:round;stroke-linejoin:miter;stroke-miterlimit:4;stroke-dasharray:none;stroke-dashoffset:0;stroke-opacity:1"/><circle id="circle7003" cx="88.188" cy="-170.293" r="1.158" transform="scale(-1)" style="opacity:1;fill:#000;fill-opacity:1;fill-rule:nonzero;stroke:none;stroke-width:.5;stroke-linecap:round;stroke-linejoin:round;stroke-miterlimit:4;stroke-dasharray:none;stroke-dashoffset:0;stroke-opacity:1"/><path style="opacity:1;fill:none;fill-opacity:1;fill-rule:nonzero;stroke:#000;stroke-width:.5;stroke-linecap:round;stroke-linejoin:miter;stroke-miterlimit:4;stroke-dasharray:none;stroke-dashoffset:0;stroke-opacity:1" id="path7005" d="m -94.273536,170.33794 6.639025,-0.0226"/><text id="text7011" x="160.898" y="88.717" transform="rotate(90)" xml:space="preserve" style="font-style:normal;font-variant:normal;font-weight:400;font-stretch:normal;font-size:9.46724px;line-height:125%;font-family:Arial;-inkscape-font-specification:'Arial, Normal';text-align:start;letter-spacing:0;word-spacing:0;writing-mode:lr-tb;text-anchor:start;fill:#000;fill-opacity:1;stroke:none;stroke-width:.236681px;stroke-linecap:butt;stroke-linejoin:miter;stroke-opacity:1"><tspan style="stroke-width:.236681px" id="tspan7009" x="160.898" y="88.717">...</tspan></text><text style="font-style:normal;font-variant:normal;font-weight:400;font-stretch:normal;font-size:9.46724px;line-height:125%;font-family:Arial;-inkscape-font-specification:'Arial, Normal';text-align:start;letter-spacing:0;word-spacing:0;writing-mode:lr-tb;text-anchor:start;fill:#000;fill-opacity:1;stroke:none;stroke-width:.236681px;stroke-linecap:butt;stroke-linejoin:miter;stroke-opacity:1" id="text7015" x="160.898" y="141.695" transform="rotate(90)" xml:space="preserve"><tspan id="tspan7013" x="160.898" y="141.695" style="stroke-width:.236681px">...</tspan></text></g><g id="g6674" transform="matrix(0.26458333,0,0,0.26458333,-189.31155,-331.30088)"><rect id="rect6501" width="177.741" height="92.027" x="814.912" y="1473.29" style="opacity:1;fill:#d6d6d6;fill-opacity:1;stroke:#000;stroke-width:3.77953;stroke-linecap:round;stroke-linejoin:round;stroke-miterlimit:4;stroke-dasharray:none;stroke-dashoffset:0;stroke-opacity:1;paint-order:normal"/><text style="font-style:normal;font-variant:normal;font-weight:400;font-stretch:normal;font-size:20.4054px;line-height:125%;font-family:Arial;-inkscape-font-specification:'Arial, Normal';text-align:start;letter-spacing:0;word-spacing:0;writing-mode:lr-tb;text-anchor:start;fill:#000;fill-opacity:1;stroke:none;stroke-width:.680392px;stroke-linecap:butt;stroke-linejoin:miter;stroke-opacity:1" id="text6653" x="936.357" y="1504.512" xml:space="preserve"><tspan id="tspan6651" x="936.357" y="1504.512" style="text-align:center;text-anchor:middle;stroke-width:.680392px">2 port</tspan><tspan id="tspan6655" x="936.357" y="1530.019" style="text-align:center;text-anchor:middle;stroke-width:.680392px">VNA</tspan></text><rect id="rect2020" width="57.739" height="57.442" x="827.769" y="1483.589" style="fill:#fff;stroke:#000;stroke-width:1.88976;stroke-linecap:round;stroke-linejoin:round"/><circle id="path2022" cx="852.821" cy="1553.294" r="5.357" style="fill:#fff;stroke:#000;stroke-width:1.88976;stroke-linecap:round;stroke-linejoin:round"/><circle style="fill:#fff;stroke:#000;stroke-width:1.88976;stroke-linecap:round;stroke-linejoin:round" id="path2022-2" cx="852.821" cy="1553.277" r="1.637"/><circle style="fill:#fff;stroke:#000;stroke-width:1.88976;stroke-linecap:round;stroke-linejoin:round" id="circle2039" cx="954.846" cy="1553.294" r="5.357"/><circle id="circle2041" cx="954.846" cy="1553.277" r="1.637" style="fill:#fff;stroke:#000;stroke-width:1.88976;stroke-linecap:round;stroke-linejoin:round"/><path id="path2043" d="m 852.88898,1555.2066 c 9.50488,12.4972 0.53928,28.9905 -7.07107,40.4061 -3.52321,5.2848 -0.90167,-2.3096 -4.04061,6.0609 -1.30698,3.4853 -1.01015,6.4707 -1.01015,10.1015 0,3.5119 1.3315,5.1081 3.03045,8.0812 9.41837,16.4822 13.73243,14.1422 32.32488,14.1422 6.71781,0 13.03533,1.0584 19.1929,-2.0203 11.24472,-5.6224 10.06022,-7.2277 18.18275,-16.1625 5.36076,-5.8968 13.10227,-10.5917 20.20305,-14.1421 5.18739,-2.5937 25.59108,-1.4591 32.32488,-1.0102 16.66438,1.111 35.08774,13.8177 49.49744,22.2234 17.3985,10.1491 38.4979,17.1726 58.5889,17.1726 9.3207,0 14.7242,0.4162 21.2132,-7.0711 9.3886,-10.8329 5.9137,-10.7436 10.1015,-21.2132 1.9251,-4.8128 12.1218,-16.3496 12.1218,-21.2132" style="fill:none;fill-rule:evenodd;stroke:#000;stroke-width:3.77953;stroke-linecap:butt;stroke-linejoin:miter;stroke-miterlimit:4;stroke-dasharray:none;stroke-opacity:1"/><path id="path2047" d="m 955.92454,1555.2066 c 7.46126,11.5436 17.56768,20.8218 29.29442,28.2842 5.39867,3.4356 6.98723,3.1601 13.13198,5.0508 25.38896,7.812 60.72976,11.0928 73.74116,-18.1827 2.9512,-6.6403 4.3462,-17.0068 3.0304,-24.2437 -1.8165,-9.9912 -1.9303,-3.9876 -4.0406,-13.132 -2.5102,-10.8775 -1.975,-24.3341 3.0305,-34.3452 1.0101,-2.0203 1.4333,-4.4637 3.0304,-6.0609 2.6978,-2.6978 6.7,-3.0687 10.1016,-4.0406 18.2566,-5.2162 29.8399,-0.2387 43.4365,12.1218 1.7268,1.5699 4.0406,4.7917 4.0406,7.0711" style="fill:none;fill-rule:evenodd;stroke:#000;stroke-width:3.77953;stroke-linecap:butt;stroke-linejoin:miter;stroke-miterlimit:4;stroke-dasharray:none;stroke-opacity:1"/><rect id="rect2049" width="11.112" height="8.081" x="-933.955" y="1703.696" transform="rotate(-63.690066)" style="fill:#fff;stroke:#000;stroke-width:1.88976;stroke-linecap:round;stroke-linejoin:round"/><rect style="fill:#fff;stroke:#000;stroke-width:1.88976;stroke-linecap:round;stroke-linejoin:round" id="rect2051" width="11.112" height="8.081" x="-1866.566" y="334.294" transform="rotate(-116.64079)"/><g style="stroke-width:1.64936" id="g2098" transform="matrix(0.60626592,0,0,0.60632212,238.46903,463.0314)"><ellipse style="fill:none;fill-opacity:1;stroke:#000;stroke-width:1.24676;stroke-linecap:round;stroke-linejoin:round;stroke-miterlimit:4;stroke-dasharray:none" id="path2071" cx="1020.784" cy="1729.93" rx="42.586" ry="43.47"/><ellipse id="circle2073" cx="1028.234" cy="1731.445" rx="34.883" ry="35.893" style="fill:none;fill-opacity:1;stroke:#000;stroke-width:1.24676;stroke-linecap:round;stroke-linejoin:round;stroke-miterlimit:4;stroke-dasharray:none"/><ellipse style="fill:none;fill-opacity:1;stroke:#000;stroke-width:1.24676;stroke-linecap:round;stroke-linejoin:round;stroke-miterlimit:4;stroke-dasharray:none" id="circle2075" cx="1035.305" cy="1730.688" rx="27.812" ry="27.055"/><ellipse id="ellipse2077" cx="1042.124" cy="1732.269" rx="20.489" ry="19.918" style="fill:none;fill-opacity:1;stroke:#000;stroke-width:1.24676;stroke-linecap:round;stroke-linejoin:round;stroke-miterlimit:4;stroke-dasharray:none"/><ellipse style="fill:none;fill-opacity:1;stroke:#000;stroke-width:1.24676;stroke-linecap:round;stroke-linejoin:round;stroke-miterlimit:4;stroke-dasharray:none" id="ellipse2079" cx="1048.374" cy="1732.096" rx="13.703" ry="13.305"/><path style="fill:none;fill-rule:evenodd;stroke:#000;stroke-width:1.64936px;stroke-linecap:butt;stroke-linejoin:miter;stroke-opacity:1" id="path2081" d="m 1046.0807,1695.1127 c 0,0 -5.5559,6.0609 -3.0305,16.415 3.8316,15.7097 19.698,19.1929 19.698,19.1929 0,0 -19.698,-0.7576 -32.3249,-18.4353 -7.5761,-10.6066 -8.8388,-25.7589 -8.8388,-25.7589"/><path style="fill:none;fill-rule:evenodd;stroke:#000;stroke-width:1.64936px;stroke-linecap:butt;stroke-linejoin:miter;stroke-opacity:1" id="path2083" d="m 996.0781,1694.8602 c 0,0 12.9435,14.7488 22.4759,21.2132 21.9708,14.8997 44.1942,14.6472 44.1942,14.6472 0,0 -33.3351,-1.7678 -48.2348,-6.3135 -11.8693,-2.5253 -33.08251,-11.1116 -33.08251,-11.1116"/><path id="path2085" d="m 1046.0807,1765.086 c 0,0 -5.5559,-6.0609 -3.0305,-16.415 3.8316,-15.7097 19.698,-19.1929 19.698,-19.1929 0,0 -19.698,0.7576 -32.3249,18.4353 -7.5761,10.6066 -8.8388,25.7589 -8.8388,25.7589" style="fill:none;fill-rule:evenodd;stroke:#000;stroke-width:1.64936px;stroke-linecap:butt;stroke-linejoin:miter;stroke-opacity:1"/><path id="path2087" d="m 996.0781,1765.3385 c 0,0 12.9435,-14.7488 22.4759,-21.2132 21.9708,-14.8997 44.1942,-14.6472 44.1942,-14.6472 0,0 -33.3351,1.7678 -48.2348,6.3135 -11.8693,2.5253 -33.08251,11.1116 -33.08251,11.1116" style="fill:none;fill-rule:evenodd;stroke:#000;stroke-width:1.64936px;stroke-linecap:butt;stroke-linejoin:miter;stroke-opacity:1"/></g></g><text id="text2055" x="121.898" y="85.794" xml:space="preserve" style="font-style:normal;font-variant:normal;font-weight:400;font-stretch:normal;font-size:17.1914px;line-height:125%;font-family:Arial;-inkscape-font-specification:'Arial, Normal';text-align:center;letter-spacing:0;word-spacing:0;writing-mode:lr-tb;text-anchor:middle;fill:#000;fill-opacity:1;stroke:none;stroke-width:.264583px;stroke-linecap:butt;stroke-linejoin:miter;stroke-opacity:1"><tspan style="stroke-width:.264583px" id="tspan2053" x="121.898" y="85.794">?</tspan></text></g></svg>